<svg width="68" height="68" viewBox="0 0 68 68" fill="none" xmlns="http://www.w3.org/2000/svg">
<path d="M28.3333 25.5H39.6666M28.3333 38.25C26.1727 39.4974 24.4841 41.4229 23.5293 43.7279C22.5746 46.0328 22.4071 48.5884 23.0528 50.9982C23.6985 53.4081 25.1214 55.5375 27.1007 57.0563C29.08 58.5751 31.5051 59.3983 34 59.3983C36.4948 59.3983 38.92 58.5751 40.8993 57.0563C42.8786 55.5375 44.3014 53.4081 44.9471 50.9982C45.5928 48.5884 45.4253 46.0328 44.4706 43.7279C43.5159 41.4229 41.8272 39.4974 39.6666 38.25V14.1667C39.6666 12.6638 39.0696 11.2224 38.0069 10.1597C36.9442 9.09702 35.5029 8.5 34 8.5C32.4971 8.5 31.0557 9.09702 29.993 10.1597C28.9303 11.2224 28.3333 12.6638 28.3333 14.1667V38.25Z" stroke="url(#paint0_linear_147_195)" stroke-width="4" stroke-linecap="round" stroke-linejoin="round"/>
<defs>
<linearGradient id="paint0_linear_147_195" x1="22.6666" y1="33.9491" x2="45.3333" y2="33.9491" gradientUnits="userSpaceOnUse">
<stop stop-color="#2AF598"/>
<stop offset="1" stop-color="#009EFD"/>
</linearGradient>
</defs>
</svg>
