<svg width="16" height="15" viewBox="0 0 16 15" fill="none" xmlns="http://www.w3.org/2000/svg">
<path d="M7.83324 0.623657C5.88386 0.623657 5.63873 0.632636 4.8728 0.666757C4.10688 0.702674 3.58519 0.822995 3.12815 1.00078C2.64875 1.1811 2.21451 1.46395 1.8558 1.82956C1.49042 2.18845 1.2076 2.62264 1.02703 3.10191C0.84924 3.55805 0.728021 4.08064 0.693002 4.84386C0.658882 5.61158 0.649902 5.85582 0.649902 7.80789C0.649902 9.75816 0.658882 10.0024 0.693002 10.7683C0.728919 11.5333 0.84924 12.055 1.02703 12.5121C1.2111 12.9844 1.45623 13.3848 1.8558 13.7844C2.25448 14.184 2.65495 14.43 3.12725 14.6132C3.58519 14.791 4.10598 14.9122 4.87101 14.9472C5.63783 14.9813 5.88206 14.9903 7.83324 14.9903C9.78441 14.9903 10.0277 14.9813 10.7946 14.9472C11.5587 14.9113 12.0822 14.791 12.5392 14.6132C13.0183 14.4328 13.4522 14.1499 13.8107 13.7844C14.2102 13.3848 14.4554 12.9844 14.6394 12.5121C14.8163 12.055 14.9376 11.5333 14.9735 10.7683C15.0076 10.0024 15.0166 9.75816 15.0166 7.80699C15.0166 5.85582 15.0076 5.61158 14.9735 4.84476C14.9376 4.08064 14.8163 3.55805 14.6394 3.10191C14.4589 2.62262 14.1761 2.18843 13.8107 1.82956C13.4521 1.46382 13.0178 1.18095 12.5383 1.00078C12.0804 0.822995 11.5578 0.701776 10.7937 0.666757C10.0268 0.632636 9.78351 0.623657 7.83144 0.623657H7.83413H7.83324ZM7.18943 1.91845H7.83413C9.75208 1.91845 9.97926 1.92474 10.7362 1.95976C11.4366 1.99118 11.8173 2.10881 12.0705 2.20668C12.4054 2.33688 12.6452 2.49312 12.8966 2.74454C13.148 2.99595 13.3033 3.2348 13.4335 3.57062C13.5323 3.82293 13.649 4.20365 13.6805 4.90403C13.7155 5.66097 13.7227 5.88814 13.7227 7.80519C13.7227 9.72225 13.7155 9.95032 13.6805 10.7073C13.649 11.4076 13.5314 11.7875 13.4335 12.0407C13.3184 12.3526 13.1346 12.6346 12.8957 12.8659C12.6443 13.1173 12.4054 13.2726 12.0696 13.4028C11.8182 13.5016 11.4375 13.6183 10.7362 13.6506C9.97926 13.6848 9.75208 13.6928 7.83413 13.6928C5.91618 13.6928 5.68811 13.6848 4.93117 13.6506C4.23079 13.6183 3.85098 13.5016 3.59776 13.4028C3.28574 13.2878 3.00345 13.1043 2.77168 12.8659C2.53261 12.6342 2.34851 12.3519 2.23293 12.0398C2.13506 11.7875 2.01743 11.4067 1.986 10.7064C1.95188 9.94942 1.9447 9.72225 1.9447 7.8034C1.9447 5.88545 1.95188 5.65917 1.986 4.90223C2.01833 4.20185 2.13506 3.82114 2.23383 3.56793C2.36403 3.233 2.52026 2.99326 2.77168 2.74184C3.0231 2.49043 3.26194 2.33509 3.59776 2.20489C3.85098 2.10612 4.23079 1.98939 4.93117 1.95706C5.59383 1.92653 5.85064 1.91756 7.18943 1.91666V1.91845ZM11.6682 3.11089C11.555 3.11089 11.4429 3.13318 11.3384 3.1765C11.2338 3.21982 11.1388 3.28332 11.0587 3.36336C10.9787 3.4434 10.9152 3.53843 10.8719 3.64301C10.8285 3.7476 10.8062 3.85969 10.8062 3.97289C10.8062 4.08609 10.8285 4.19818 10.8719 4.30276C10.9152 4.40734 10.9787 4.50237 11.0587 4.58241C11.1388 4.66246 11.2338 4.72595 11.3384 4.76927C11.4429 4.81259 11.555 4.83489 11.6682 4.83489C11.8969 4.83489 12.1161 4.74407 12.2778 4.58241C12.4394 4.42076 12.5302 4.2015 12.5302 3.97289C12.5302 3.74427 12.4394 3.52502 12.2778 3.36336C12.1161 3.2017 11.8969 3.11089 11.6682 3.11089ZM7.83413 4.11835C7.34483 4.11071 6.8589 4.2005 6.40463 4.38246C5.95036 4.56443 5.53683 4.83495 5.18811 5.17827C4.83939 5.52159 4.56245 5.93085 4.37342 6.38223C4.18439 6.83361 4.08704 7.31808 4.08704 7.80744C4.08704 8.2968 4.18439 8.78127 4.37342 9.23265C4.56245 9.68402 4.83939 10.0933 5.18811 10.4366C5.53683 10.7799 5.95036 11.0504 6.40463 11.2324C6.8589 11.4144 7.34483 11.5042 7.83413 11.4965C8.80257 11.4814 9.72623 11.0861 10.4057 10.3959C11.0853 9.70571 11.4661 8.776 11.4661 7.80744C11.4661 6.83888 11.0853 5.90916 10.4057 5.21897C9.72623 4.52877 8.80257 4.13346 7.83413 4.11835ZM7.83413 5.41225C8.46926 5.41225 9.07837 5.66455 9.52747 6.11365C9.97657 6.56275 10.2289 7.17186 10.2289 7.80699C10.2289 8.44212 9.97657 9.05123 9.52747 9.50033C9.07837 9.94943 8.46926 10.2017 7.83413 10.2017C7.19901 10.2017 6.5899 9.94943 6.14079 9.50033C5.69169 9.05123 5.43939 8.44212 5.43939 7.80699C5.43939 7.17186 5.69169 6.56275 6.14079 6.11365C6.5899 5.66455 7.19901 5.41225 7.83413 5.41225Z" fill="#EEEEEE"/>
</svg>
