<svg width="16" height="15" viewBox="0 0 16 15" fill="none" xmlns="http://www.w3.org/2000/svg">
<path fill-rule="evenodd" clip-rule="evenodd" d="M2.37024 0.827231C2.52735 0.670355 2.71601 0.54866 2.92371 0.47021C3.13142 0.391761 3.35342 0.358349 3.57501 0.372187C3.7966 0.386026 4.01272 0.4468 4.20905 0.550482C4.40538 0.654164 4.57743 0.798386 4.7138 0.973591L6.32556 3.04419C6.62098 3.42401 6.72514 3.91876 6.60841 4.38567L6.11725 6.35211C6.09185 6.45396 6.09323 6.56065 6.12123 6.66181C6.14924 6.76298 6.20292 6.85518 6.27708 6.92947L8.48326 9.13565C8.55764 9.20996 8.65 9.26373 8.75133 9.29174C8.85267 9.31975 8.95953 9.32104 9.06152 9.29548L11.0271 8.80432C11.2575 8.74671 11.498 8.74224 11.7304 8.79124C11.9628 8.84024 12.181 8.94143 12.3685 9.08717L14.4391 10.698C15.1835 11.2772 15.2518 12.3771 14.5855 13.0425L13.6571 13.9709C12.9926 14.6354 11.9995 14.9272 11.0737 14.6013C8.70431 13.7676 6.55298 12.4111 4.77935 10.6325C3.00084 8.85911 1.64437 6.7081 0.810561 4.33898C0.485515 3.41413 0.777338 2.42014 1.4418 1.75568L2.37024 0.827231Z" fill="#A91079"/>
</svg>
