<svg width="16" height="11" viewBox="0 0 16 11" fill="none" xmlns="http://www.w3.org/2000/svg">
<path d="M0.72263 1.46023C0.813157 1.06356 1.03569 0.709399 1.3538 0.455733C1.6719 0.202068 2.06671 0.0639375 2.47357 0.0639648H13.2486C13.6554 0.0639375 14.0502 0.202068 14.3683 0.455733C14.6864 0.709399 14.909 1.06356 14.9995 1.46023L7.86107 5.8232L0.72263 1.46023ZM0.677734 2.48565V8.86445L5.88834 5.66966L0.677734 2.48565ZM6.74855 6.19674L0.849236 9.81265C0.994992 10.12 1.22504 10.3796 1.5126 10.5613C1.80016 10.743 2.13341 10.8393 2.47357 10.839H13.2486C13.5887 10.839 13.9218 10.7425 14.2092 10.5607C14.4966 10.3788 14.7264 10.1191 14.872 9.81175L8.97269 6.19584L7.86107 6.87556L6.74855 6.19584V6.19674ZM9.83379 5.67056L15.0444 8.86445V2.48565L9.83379 5.66966V5.67056Z" fill="#A91079"/>
</svg>
