<svg width="78" height="78" viewBox="0 0 78 78" fill="none" xmlns="http://www.w3.org/2000/svg">
<path d="M66.783 25H70.5C72.3565 25 74.137 25.7375 75.4497 27.0503C76.7625 28.363 77.5 30.1435 77.5 32V46C77.5 47.8565 76.7625 49.637 75.4497 50.9498C74.137 52.2625 72.3565 53 70.5 53H66.783C65.9297 59.7666 62.6364 65.9891 57.5211 70.5C52.4058 75.0109 45.8201 77.4999 39 77.5V70.5C44.5695 70.5 49.911 68.2875 53.8492 64.3493C57.7875 60.411 60 55.0696 60 49.5V28.5C60 22.9305 57.7875 17.589 53.8492 13.6508C49.911 9.71251 44.5695 7.50002 39 7.50002C33.4305 7.50002 28.089 9.71251 24.1508 13.6508C20.2125 17.589 18 22.9305 18 28.5V53H7.5C5.64348 53 3.86301 52.2625 2.55025 50.9498C1.2375 49.637 0.5 47.8565 0.5 46V32C0.5 30.1435 1.2375 28.363 2.55025 27.0503C3.86301 25.7375 5.64348 25 7.5 25H11.217C12.0711 18.2341 15.3648 12.0125 20.48 7.50238C25.5952 2.99229 32.1804 0.503784 39 0.503784C45.8196 0.503784 52.4048 2.99229 57.52 7.50238C62.6352 12.0125 65.9289 18.2341 66.783 25ZM7.5 32V46H11V32H7.5ZM67 32V46H70.5V32H67ZM24.16 52.2475L27.87 46.3115C31.2058 48.4011 35.0638 49.5064 39 49.5C42.9362 49.5064 46.7942 48.4011 50.13 46.3115L53.84 52.2475C49.3924 55.034 44.2484 56.5081 39 56.5C33.7516 56.5081 28.6076 55.034 24.16 52.2475Z" fill="url(#paint0_linear_241_52)"/>
<defs>
<linearGradient id="paint0_linear_241_52" x1="0.5" y1="39.0019" x2="77.5" y2="39.0019" gradientUnits="userSpaceOnUse">
<stop stop-color="#2AF598"/>
<stop offset="1" stop-color="#009EFD"/>
</linearGradient>
</defs>
</svg>
