<svg width="16" height="15" viewBox="0 0 16 15" fill="none" xmlns="http://www.w3.org/2000/svg">
<path d="M15.0406 1.0406C15.0732 0.959013 15.0812 0.869634 15.0636 0.783545C15.0459 0.697456 15.0034 0.618443 14.9412 0.556302C14.8791 0.49416 14.8001 0.451623 14.714 0.433963C14.6279 0.416303 14.5385 0.424298 14.4569 0.456956L1.39494 5.68193H1.39404L0.988185 5.84356C0.911315 5.87422 0.844416 5.92553 0.794878 5.99183C0.74534 6.05813 0.715091 6.13683 0.707473 6.21924C0.699854 6.30165 0.715163 6.38456 0.751707 6.45881C0.788252 6.53307 0.84461 6.59577 0.914556 6.64001L1.2827 6.87347L1.2836 6.87526L5.76869 9.72884L8.62227 14.2139L8.62407 14.2157L8.85753 14.5839C8.90191 14.6536 8.96465 14.7096 9.03885 14.746C9.11305 14.7823 9.19583 14.7974 9.27808 14.7897C9.36032 14.782 9.43885 14.7517 9.50502 14.7023C9.57118 14.6528 9.62242 14.5861 9.65308 14.5094L15.0406 1.0406ZM13.3947 2.73766L6.66571 9.46665L6.47266 9.16316C6.43729 9.10746 6.39007 9.06025 6.33438 9.02488L6.03089 8.83182L12.7599 2.10284L13.8176 1.67992L13.3956 2.73766H13.3947Z" fill="#EEEEEE"/>
</svg>
