<svg width="63" height="69" viewBox="0 0 63 69" fill="none" xmlns="http://www.w3.org/2000/svg">
<path d="M31.2585 2.20301C31.6919 1.66065 32.2286 1.20965 32.8376 0.876112C33.4465 0.542574 34.1155 0.333124 34.8059 0.259884C35.4963 0.186645 36.1944 0.251071 36.8597 0.449435C37.525 0.647798 38.1444 0.976157 38.682 1.41551L55.8075 15.4015C56.7493 16.1705 57.395 17.2425 57.6344 18.4346C57.8737 19.6266 57.6919 20.8648 57.12 21.9378C55.6227 21.4802 54.0656 21.2484 52.5 21.25H50.925L52.4895 19.465L43.47 12.0993L36.0308 21.2553H29.2635L39.4012 8.78126L35.3587 5.47901L22.7692 21.25H16.0493L31.2585 2.20301ZM44.625 47.5C43.9288 47.5 43.2611 47.7766 42.7688 48.2688C42.2766 48.7611 42 49.4288 42 50.125C42 50.8212 42.2766 51.4889 42.7688 51.9812C43.2611 52.4734 43.9288 52.75 44.625 52.75H49.875C50.5712 52.75 51.2389 52.4734 51.7312 51.9812C52.2234 51.4889 52.5 50.8212 52.5 50.125C52.5 49.4288 52.2234 48.7611 51.7312 48.2688C51.2389 47.7766 50.5712 47.5 49.875 47.5H44.625ZM5.25 23.875C5.25 23.1788 5.52656 22.5111 6.01885 22.0189C6.51113 21.5266 7.17881 21.25 7.875 21.25H10.8045L14.9783 16H7.875C5.78642 16 3.78338 16.8297 2.30653 18.3065C0.829685 19.7834 0 21.7864 0 23.875V55.375C0 58.856 1.38281 62.1944 3.84422 64.6558C6.30564 67.1172 9.64403 68.5 13.125 68.5H52.5C55.2848 68.5 57.9555 67.3938 59.9246 65.4246C61.8937 63.4555 63 60.7848 63 58V37C63 34.2152 61.8937 31.5445 59.9246 29.5754C57.9555 27.6063 55.2848 26.5 52.5 26.5H7.875C7.17881 26.5 6.51113 26.2234 6.01885 25.7312C5.52656 25.2389 5.25 24.5712 5.25 23.875ZM5.25 55.375V31.3038C6.069 31.5925 6.95625 31.75 7.875 31.75H52.5C53.8924 31.75 55.2277 32.3031 56.2123 33.2877C57.1969 34.2723 57.75 35.6076 57.75 37V58C57.75 59.3924 57.1969 60.7277 56.2123 61.7123C55.2277 62.6969 53.8924 63.25 52.5 63.25H13.125C11.0364 63.25 9.03338 62.4203 7.55653 60.9435C6.07969 59.4666 5.25 57.4636 5.25 55.375Z" fill="url(#paint0_linear_241_45)"/>
<defs>
<linearGradient id="paint0_linear_241_45" x1="0" y1="34.3653" x2="63" y2="34.3653" gradientUnits="userSpaceOnUse">
<stop stop-color="#2AF598"/>
<stop offset="1" stop-color="#009EFD"/>
</linearGradient>
</defs>
</svg>
