<svg width="18" height="15" viewBox="0 0 18 15" fill="none" xmlns="http://www.w3.org/2000/svg">
<path d="M5.45312 14.3667C12.0042 14.3667 15.5879 8.838 15.5879 4.05195C15.5879 3.89724 15.5879 3.74032 15.5814 3.58561C16.2791 3.07118 16.8813 2.4343 17.3597 1.70478C16.708 1.99746 16.0173 2.19036 15.3102 2.27721C16.0551 1.82373 16.613 1.11022 16.8802 0.269298C16.1803 0.691571 15.4144 0.988005 14.6158 1.14562C14.0789 0.563272 13.3685 0.177486 12.5946 0.0480159C11.8206 -0.0814542 11.0264 0.0526174 10.3348 0.429463C9.64328 0.80631 9.09303 1.4049 8.76932 2.13251C8.44561 2.86012 8.36649 3.67615 8.54424 4.4542C7.12806 4.38187 5.74261 4.00716 4.47777 3.35437C3.21293 2.70157 2.09693 1.78528 1.20216 0.664913C0.747922 1.46397 0.609298 2.40915 0.814438 3.30853C1.01958 4.20791 1.5531 4.99405 2.30667 5.50733C1.74198 5.48778 1.18971 5.33334 0.694389 5.05646V5.10619C0.695363 5.94325 0.980073 6.75431 1.50039 7.40225C2.02072 8.0502 2.74473 8.49529 3.55006 8.6623C3.24438 8.74807 2.92862 8.79082 2.61155 8.78938C2.38803 8.79007 2.16495 8.76898 1.94537 8.72639C2.17299 9.44696 2.61619 10.077 3.2129 10.5282C3.80961 10.9794 4.52995 11.2292 5.27302 11.2426C4.0107 12.2524 2.45141 12.8001 0.846286 12.7975C0.563454 12.7987 0.280819 12.7821 0 12.7477C1.62912 13.8056 3.52109 14.3673 5.45312 14.3667V14.3667Z" fill="#EEEEEE"/>
</svg>
